<svg width="40" height="40" viewBox="0 0 40 40" fill="none" xmlns="http://www.w3.org/2000/svg">
<g clip-path="url(#clip0_1_2839)">
<path d="M15.0434 6.38205C15.0839 6.31986 15.1175 6.26849 15.1437 6.22839L18.6282 4.35941L28.5036 11.4953L35.4552 21.1894L33.7582 24.8651C33.7203 24.8899 33.6734 24.9205 33.618 24.9567C33.4477 25.0676 33.1962 25.2305 32.8723 25.4379C32.2245 25.8526 31.2873 26.4449 30.131 27.1544C27.818 28.5736 24.631 30.4604 21.1327 32.3319C17.6328 34.2042 13.8304 36.0563 10.2852 37.41C6.72411 38.7696 3.48315 39.6021 1.08372 39.49C0.773758 39.4755 0.52462 39.2264 0.51012 38.9164C0.397976 36.517 1.23042 33.276 2.59009 29.7149C3.94373 26.1697 5.79583 22.3672 7.66815 18.8673C9.53959 15.369 11.4264 12.182 12.8457 9.86901C13.5552 8.71276 14.1475 7.77552 14.5622 7.12773C14.7695 6.80384 14.9324 6.55235 15.0434 6.38205Z" fill="#FEE333" stroke="#061737"/>
<mask id="path-2-inside-1_1_2839" fill="white">
<path d="M14.7789 5.87304C14.7778 5.87484 14.777 5.87601 14.7757 5.87789C14.4129 6.42898 14.0645 6.98929 13.7055 7.54273C13.7046 7.54421 13.7037 7.54546 13.7028 7.54695C10.2182 13.056 -0.381398 30.5512 0.0106315 38.9397C0.0371933 39.5074 0.492584 39.9628 1.06031 39.9894C1.25625 39.9985 1.45774 40.001 1.66336 39.9984C1.63984 39.9171 1.62437 39.8324 1.62032 39.7446C1.22727 31.3333 11.8849 13.7667 15.3403 8.30788C17.8372 9.50592 21.9378 11.7622 25.0877 14.9122C28.8828 18.7072 31.402 23.9381 32.3089 26.0108C32.3521 26.1095 32.4 26.2051 32.4514 26.2983C33.5322 25.6146 34.1522 25.2044 34.1522 25.2044L36.0311 21.1346L28.8624 11.1377L18.6675 3.77094L14.7956 5.84773C14.7956 5.84773 14.7938 5.85039 14.7912 5.8543C14.7907 5.855 14.7903 5.85578 14.7896 5.85656C14.7871 5.86062 14.7835 5.86609 14.7789 5.87304Z"/>
</mask>
<path d="M14.7789 5.87304C14.7778 5.87484 14.777 5.87601 14.7757 5.87789C14.4129 6.42898 14.0645 6.98929 13.7055 7.54273C13.7046 7.54421 13.7037 7.54546 13.7028 7.54695C10.2182 13.056 -0.381398 30.5512 0.0106315 38.9397C0.0371933 39.5074 0.492584 39.9628 1.06031 39.9894C1.25625 39.9985 1.45774 40.001 1.66336 39.9984C1.63984 39.9171 1.62437 39.8324 1.62032 39.7446C1.22727 31.3333 11.8849 13.7667 15.3403 8.30788C17.8372 9.50592 21.9378 11.7622 25.0877 14.9122C28.8828 18.7072 31.402 23.9381 32.3089 26.0108C32.3521 26.1095 32.4 26.2051 32.4514 26.2983C33.5322 25.6146 34.1522 25.2044 34.1522 25.2044L36.0311 21.1346L28.8624 11.1377L18.6675 3.77094L14.7956 5.84773C14.7956 5.84773 14.7938 5.85039 14.7912 5.8543C14.7907 5.855 14.7903 5.85578 14.7896 5.85656C14.7871 5.86062 14.7835 5.86609 14.7789 5.87304Z" fill="#FECE00"/>
<path d="M14.7789 5.87304L13.9454 5.32051L13.9348 5.3366L13.9247 5.3531L14.7789 5.87304ZM14.7757 5.87789L13.9437 5.32318L13.9405 5.328L14.7757 5.87789ZM13.7055 7.54273L12.8665 6.99854L12.8528 7.01978L12.8401 7.04169L13.7055 7.54273ZM13.7028 7.54695L14.548 8.08152L14.5584 8.06495L14.5683 8.04798L13.7028 7.54695ZM0.0106315 38.9397L-0.988278 38.9864L-0.988274 38.9864L0.0106315 38.9397ZM1.06031 39.9894L1.01358 40.9883L1.01372 40.9883L1.06031 39.9894ZM1.66336 39.9984L1.6759 40.9983L2.98904 40.9818L2.62394 39.7204L1.66336 39.9984ZM1.62032 39.7446L2.61925 39.6984L2.61922 39.6979L1.62032 39.7446ZM15.3403 8.30788L15.7728 7.40629L14.971 7.02155L14.4953 7.77303L15.3403 8.30788ZM25.0877 14.9122L24.3806 15.6193L24.3806 15.6193L25.0877 14.9122ZM32.3089 26.0108L33.225 25.61L33.225 25.6099L32.3089 26.0108ZM32.4514 26.2983L31.5759 26.7815L32.0889 27.7108L32.9859 27.1434L32.4514 26.2983ZM34.1522 25.2044L34.704 26.0385L34.941 25.8817L35.0601 25.6236L34.1522 25.2044ZM36.0311 21.1346L36.939 21.5538L37.1831 21.0251L36.8438 20.5519L36.0311 21.1346ZM28.8624 11.1377L29.675 10.555L29.5801 10.4226L29.4481 10.3272L28.8624 11.1377ZM18.6675 3.77094L19.2532 2.96041L18.7461 2.59401L18.1948 2.8897L18.6675 3.77094ZM14.7956 5.84773L14.3229 4.96649L14.1054 5.08315L13.9672 5.2876L14.7956 5.84773ZM14.7912 5.8543L15.6233 6.409L15.6258 6.40514L14.7912 5.8543ZM14.7896 5.85656L14.0088 5.23187L13.9703 5.27999L13.938 5.33246L14.7896 5.85656ZM13.9247 5.3531C13.9298 5.34477 13.9346 5.33712 13.9391 5.3302C13.9435 5.32348 13.947 5.31821 13.9489 5.31536C13.9499 5.31399 13.9506 5.31297 13.9507 5.31275C13.9508 5.31265 13.9509 5.31256 13.9507 5.31273C13.9507 5.31283 13.9504 5.31315 13.9502 5.31351C13.9492 5.31503 13.9467 5.31863 13.9437 5.32319L15.6078 6.43259C15.6054 6.43621 15.6035 6.43896 15.603 6.43968C15.6016 6.44174 15.6042 6.43788 15.6058 6.43551C15.6114 6.42727 15.6214 6.41228 15.6331 6.39299L13.9247 5.3531ZM13.9405 5.328C13.5818 5.87282 13.2051 6.47656 12.8665 6.99854L14.5445 8.08692C14.9238 7.50202 15.244 6.98514 15.611 6.42777L13.9405 5.328ZM12.8401 7.04169C12.8488 7.02659 12.8563 7.01453 12.8612 7.00686C12.8637 7.00302 12.8657 6.99996 12.8668 6.99814C12.8679 6.99651 12.8688 6.99513 12.8685 6.99556C12.8685 6.99558 12.8682 6.99605 12.8679 6.99659C12.8675 6.99717 12.8669 6.99807 12.8662 6.99917C12.8648 7.00133 12.8625 7.00474 12.8599 7.00892C12.8546 7.01729 12.8466 7.03007 12.8374 7.04591L14.5683 8.04798C14.5595 8.06308 14.552 8.07514 14.5471 8.08282C14.5447 8.08665 14.5427 8.08971 14.5415 8.09153C14.5404 8.09317 14.5395 8.09454 14.5398 8.09411C14.5398 8.09409 14.5401 8.09362 14.5405 8.09308C14.5409 8.0925 14.5415 8.0916 14.5422 8.0905C14.5436 8.08834 14.5458 8.08494 14.5485 8.08075C14.5538 8.07238 14.5617 8.0596 14.5709 8.04376L12.8401 7.04169ZM12.8577 7.01237C11.1078 9.77894 7.56604 15.563 4.50743 21.7186C2.97842 24.7957 1.5608 27.9843 0.548347 30.947C-0.45678 33.8883 -1.09521 36.6984 -0.988278 38.9864L1.00954 38.893C0.920456 36.9868 1.45996 34.4643 2.44089 31.5938C3.41449 28.7447 4.79105 25.6423 6.29851 22.6085C9.31285 16.5421 12.8132 10.824 14.548 8.08152L12.8577 7.01237ZM-0.988274 38.9864C-0.937592 40.0697 -0.0696983 40.9376 1.01358 40.9883L1.10705 38.9905C1.05487 38.988 1.01198 38.9452 1.00954 38.893L-0.988274 38.9864ZM1.01372 40.9883C1.23298 40.9985 1.45456 41.0011 1.6759 40.9983L1.65082 38.9985C1.46091 39.0008 1.27953 38.9985 1.10691 38.9905L1.01372 40.9883ZM2.62394 39.7204C2.62169 39.7126 2.62053 39.7071 2.61993 39.7036C2.61934 39.7002 2.61926 39.6985 2.61925 39.6984L0.62138 39.7907C0.629505 39.9665 0.660187 40.1292 0.702782 40.2764L2.62394 39.7204ZM2.61922 39.6979C2.5299 37.7863 3.07263 35.2553 4.05843 32.3756C5.03684 29.5174 6.41963 26.4055 7.93246 23.3645C10.9575 17.2835 14.4651 11.5601 16.1852 8.84272L14.4953 7.77303C12.76 10.5145 9.21112 16.3038 6.14179 22.4737C4.60743 25.558 3.18355 28.756 2.16622 31.7279C1.15629 34.6781 0.514206 37.4972 0.621403 39.7912L2.61922 39.6979ZM14.9077 9.20947C17.3682 10.3901 21.3494 12.5881 24.3806 15.6193L25.7948 14.2051C22.5262 10.9364 18.3062 8.62178 15.7728 7.40629L14.9077 9.20947ZM24.3806 15.6193C28.0384 19.2771 30.4972 24.365 31.3927 26.4116L33.225 25.6099C32.3067 23.5112 29.7271 18.1374 25.7948 14.2051L24.3806 15.6193ZM31.3927 26.4116C31.4496 26.5418 31.5115 26.6649 31.5759 26.7815L33.3268 25.815C33.2884 25.7454 33.2545 25.6773 33.225 25.61L31.3927 26.4116ZM32.9859 27.1434C33.5297 26.7995 33.958 26.524 34.2509 26.3342C34.3974 26.2393 34.5101 26.1657 34.5864 26.1157C34.6245 26.0907 34.6536 26.0716 34.6733 26.0587C34.6832 26.0522 34.6907 26.0472 34.6958 26.0439C34.6984 26.0422 34.7003 26.0409 34.7017 26.04C34.7024 26.0395 34.7029 26.0392 34.7033 26.0389C34.7035 26.0388 34.7036 26.0387 34.7037 26.0386C34.7038 26.0386 34.7038 26.0385 34.7039 26.0385C34.7039 26.0385 34.7039 26.0385 34.7039 26.0385C34.7039 26.0385 34.704 26.0385 34.1522 25.2044C33.6005 24.3704 33.6005 24.3704 33.6005 24.3704C33.6005 24.3704 33.6005 24.3704 33.6005 24.3704C33.6005 24.3704 33.6005 24.3704 33.6005 24.3704C33.6004 24.3705 33.6004 24.3705 33.6003 24.3706C33.6 24.3707 33.5996 24.371 33.5991 24.3713C33.5981 24.372 33.5964 24.3731 33.5942 24.3746C33.5897 24.3776 33.5828 24.3821 33.5736 24.3882C33.5552 24.4003 33.5274 24.4186 33.4905 24.4427C33.4168 24.491 33.3069 24.5627 33.1633 24.6558C32.876 24.8419 32.4539 25.1134 31.9168 25.4531L32.9859 27.1434ZM35.0601 25.6236L36.939 21.5538L35.1232 20.7155L33.2443 24.7853L35.0601 25.6236ZM36.8438 20.5519L29.675 10.555L28.0497 11.7205L35.2185 21.7174L36.8438 20.5519ZM29.4481 10.3272L19.2532 2.96041L18.0818 4.58148L28.2767 11.9482L29.4481 10.3272ZM18.1948 2.8897L14.3229 4.96649L15.2682 6.72897L19.1402 4.65218L18.1948 2.8897ZM14.7956 5.84773C13.9672 5.2876 13.9672 5.2876 13.9672 5.28761C13.9672 5.28761 13.9672 5.28762 13.9672 5.28762C13.9671 5.28763 13.9671 5.28764 13.9671 5.28765C13.9671 5.28767 13.9671 5.28769 13.9671 5.2877C13.9671 5.28774 13.967 5.28778 13.967 5.28782C13.967 5.28789 13.9669 5.28797 13.9669 5.28806C13.9667 5.28822 13.9666 5.2884 13.9665 5.28859C13.9662 5.28897 13.9659 5.2894 13.9656 5.28988C13.965 5.29084 13.9642 5.292 13.9633 5.29333C13.9616 5.29595 13.9593 5.29941 13.9566 5.30345L15.6258 6.40514C15.6257 6.40528 15.6256 6.40545 15.6254 6.40577C15.6253 6.40595 15.6251 6.4062 15.6249 6.40653C15.6248 6.4067 15.6246 6.4069 15.6245 6.40712C15.6244 6.40723 15.6243 6.40735 15.6242 6.40747C15.6242 6.40753 15.6242 6.4076 15.6241 6.40766C15.6241 6.4077 15.6241 6.40773 15.624 6.40777C15.624 6.40778 15.624 6.4078 15.624 6.40782C15.624 6.40783 15.624 6.40783 15.624 6.40784C15.624 6.40785 15.624 6.40785 15.624 6.40786C15.624 6.40786 15.624 6.40787 14.7956 5.84773ZM13.9591 5.2996C13.9568 5.30318 13.9548 5.30609 13.9537 5.30781C13.9531 5.3087 13.9527 5.30942 13.9524 5.30985C13.9522 5.31008 13.9521 5.31026 13.9521 5.31038C13.952 5.31043 13.952 5.31048 13.952 5.31051C13.952 5.31053 13.9519 5.31054 13.9519 5.31055C13.9519 5.3106 13.952 5.31053 13.9519 5.31057C13.9514 5.31134 13.9545 5.30654 13.9583 5.30086C13.9665 5.28865 13.984 5.26282 14.0088 5.23187L15.5705 6.48126C15.5959 6.44952 15.614 6.42291 15.6226 6.40994C15.6248 6.40661 15.6266 6.40387 15.6278 6.4021C15.6284 6.4012 15.6289 6.40046 15.6292 6.39997C15.6295 6.39952 15.6297 6.39914 15.6298 6.39911C15.6306 6.39778 15.6272 6.40303 15.6232 6.409L13.9591 5.2996ZM13.938 5.33246C13.9408 5.32788 13.943 5.32434 13.9444 5.32224C13.9458 5.32008 13.9467 5.31859 13.9471 5.31802C13.9476 5.31719 13.9474 5.31749 13.9454 5.32051L15.6124 6.42558C15.6152 6.4214 15.6284 6.40163 15.6413 6.38066L13.938 5.33246Z" fill="#061737" mask="url(#path-2-inside-1_1_2839)"/>
<path d="M15.6044 1.12815L15.6044 1.12814L14.7985 5.84647L14.9983 5.38814C14.9983 5.38814 14.9983 5.38813 14.9983 5.38813C14.5328 5.18518 14.3065 4.65525 14.4818 4.17869C14.4818 4.17868 14.4819 4.17868 14.4819 4.17867L15.6044 1.12815Z" fill="#FB8D4B" stroke="#061737"/>
<path d="M14.9982 5.38803L14.9982 5.38803C14.5328 5.18516 14.3064 4.65506 14.4818 4.17868L14.4818 4.17867L15.6043 1.1282L15.6043 1.12818C15.7942 0.612078 16.3777 0.361377 16.8827 0.578758L16.8827 0.578765C16.9276 0.598099 16.9734 0.618059 17.0201 0.63864C16.6902 0.860162 16.424 1.18422 16.2755 1.58753L15.153 4.63794C15.153 4.63796 15.153 4.63798 15.153 4.638C15.06 4.89064 15.0224 5.15038 15.0342 5.40378C15.0221 5.39849 15.0101 5.39324 14.9982 5.38803Z" fill="#E86D24" stroke="#061737"/>
<path d="M4.80022 32.4894C4.80022 31.3342 5.73664 30.3978 6.89177 30.3978C8.0469 30.3978 8.98332 31.3342 8.98332 32.4894C8.98332 33.6445 8.0469 34.5809 6.89177 34.5809C5.73664 34.5809 4.80022 33.6445 4.80022 32.4894Z" fill="#FECE00" stroke="#061737"/>
<path d="M5.60506 33.2942C5.60506 32.1391 6.54148 31.2026 7.69661 31.2026C8.85174 31.2026 9.78816 32.1391 9.78816 33.2942C9.78816 34.4493 8.85174 35.3857 7.69661 35.3858C6.54148 35.3858 5.60506 34.4493 5.60506 33.2942Z" fill="#F9545B" stroke="#061737"/>
<path d="M13.6035 15.0423C13.6035 13.5684 14.7982 12.3737 16.272 12.3737C17.7459 12.3737 18.9406 13.5684 18.9406 15.0423C18.9406 16.5161 17.7459 17.7108 16.272 17.7108C14.7982 17.7108 13.6035 16.5161 13.6035 15.0423Z" fill="#FECE00" stroke="#061737"/>
<path d="M12.7986 15.8471C12.7986 14.3733 13.9934 13.1785 15.4672 13.1785C16.941 13.1785 18.1358 14.3733 18.1358 15.8471C18.1358 17.3209 16.941 18.5157 15.4672 18.5157C13.9934 18.5157 12.7986 17.3209 12.7986 15.8471Z" fill="#E64047" stroke="#061737"/>
<path d="M21.6509 19.2089C21.6509 18.2311 22.4435 17.4385 23.4213 17.4385C24.399 17.4385 25.1917 18.2311 25.1917 19.2089C25.1917 20.1866 24.399 20.9793 23.4213 20.9793C22.4435 20.9793 21.6509 20.1866 21.6509 19.2089Z" fill="#FECE00" stroke="#061737"/>
<path d="M22.4557 18.404C22.4557 17.4263 23.2483 16.6337 24.2261 16.6337C25.2038 16.6337 25.9965 17.4263 25.9965 18.404C25.9965 19.3818 25.2038 20.1744 24.2261 20.1744C23.2483 20.1744 22.4557 19.3818 22.4557 18.404Z" fill="#F9545B" stroke="#061737"/>
<path d="M18.1073 25.5307C18.1073 24.1569 19.221 23.0433 20.5948 23.0433C21.9686 23.0433 23.0823 24.1569 23.0823 25.5307C23.0823 26.9045 21.9686 28.0182 20.5948 28.0182C19.221 28.0182 18.1073 26.9045 18.1073 25.5307Z" fill="#FECE00" stroke="#061737"/>
<path d="M18.9121 26.3356C18.9121 24.9618 20.0258 23.8481 21.3996 23.8481C22.7734 23.8481 23.8871 24.9618 23.8871 26.3356C23.8871 27.7094 22.7734 28.8231 21.3996 28.8231C20.0258 28.8231 18.9121 27.7094 18.9121 26.3356Z" fill="#E64047" stroke="#061737"/>
<path d="M17.148 31.0223L17.1482 31.0225C17.1886 31.0629 17.1886 31.1285 17.1482 31.1689L16.4089 31.9082C16.4088 31.9082 16.4088 31.9083 16.4088 31.9083C16.3681 31.9489 16.3025 31.9486 16.2625 31.9085L16.2623 31.9082C16.2218 31.8678 16.2218 31.8022 16.2622 31.7618L15.9087 31.4082L16.2622 31.7618L17.0015 31.0225C17.0015 31.0225 17.0015 31.0225 17.0016 31.0225C17.0016 31.0225 17.0016 31.0224 17.0016 31.0224C17.0221 31.002 17.0478 30.9921 17.0749 30.9921C17.1022 30.9921 17.1278 31.0021 17.148 31.0223Z" fill="#3B484A" stroke="#061737"/>
<path d="M8.97772 22.9983L8.97766 22.9984L8.23836 23.7377C8.23834 23.7377 8.23832 23.7378 8.2383 23.7378C8.19773 23.7783 8.13213 23.7782 8.09175 23.7378C8.05127 23.6973 8.05136 23.6317 8.09169 23.5914L8.09175 23.5913L8.83111 22.8519L8.83123 22.8518C8.85139 22.8316 8.87698 22.8216 8.90435 22.8216C8.93168 22.8216 8.95736 22.8316 8.97766 22.8519C9.01814 22.8924 9.01805 22.958 8.97772 22.9983Z" fill="#3B484A" stroke="#061737"/>
<path d="M13.6092 26.3907L13.6092 26.3907C13.1397 25.9212 12.521 25.6648 11.8954 25.6648C11.8445 25.6648 11.7935 25.6665 11.7425 25.67L11.7421 25.67C11.6853 25.6738 11.642 25.723 11.6458 25.7803L13.6092 26.3907ZM13.6092 26.3907C14.1172 26.8988 14.3756 27.5809 14.3301 28.258L14.3301 28.258M13.6092 26.3907L14.3301 28.258M14.3301 28.258C14.3263 28.3142 14.2752 28.3582 14.2204 28.3544L14.2197 28.3544M14.3301 28.258L14.2197 28.3544M14.2197 28.3544C14.1626 28.3506 14.1195 28.3012 14.1233 28.2441C14.1658 27.6117 13.9175 26.9921 13.4628 26.5374L14.2197 28.3544ZM11.7549 25.8768L11.7565 25.8767L11.7565 25.8767C12.3879 25.8347 13.0078 26.0822 13.4628 26.5373L11.7549 25.8768ZM11.7549 25.8768C11.6997 25.8806 11.6497 25.8388 11.6458 25.7804L11.7549 25.8768Z" fill="#3B484A" stroke="#061737"/>
</g>
<defs>
<clipPath id="clip0_1_2839">
<rect width="40" height="40" fill="white" transform="translate(40 40) rotate(180)"/>
</clipPath>
</defs>
</svg>
