<svg width="14" height="8" viewBox="0 0 14 8" fill="none" xmlns="http://www.w3.org/2000/svg">
<path d="M2.87221 0.734495L2.8583 0.722244L2.84352 0.711057C2.43023 0.398257 1.84302 0.433706 1.47029 0.813907C1.0654 1.22691 1.0654 1.89249 1.47029 2.3055L6.25493 7.18609L6.26777 7.19919L6.28153 7.21131L6.34307 7.2655L6.35698 7.27776L6.37176 7.28894C6.78505 7.60174 7.37227 7.56629 7.74499 7.18609L12.5296 2.3055L12.5424 2.29244L12.5542 2.27847L12.6074 2.2157L12.6192 2.20167L12.6301 2.18681C12.9304 1.77397 12.8986 1.19025 12.5296 0.813907L12.5168 0.800809L12.503 0.788688L12.4415 0.734495L12.4276 0.722244L12.4128 0.711058C11.9995 0.398256 11.4123 0.433706 11.0396 0.813907L11.0396 0.813914L6.99996 4.9347L2.96036 0.813914L2.94752 0.800813L2.93375 0.788688L2.87221 0.734495Z" fill="#FECE00" stroke="#FECE00"/>
</svg>
