<svg width="8" height="11" viewBox="0 0 8 11" fill="none" xmlns="http://www.w3.org/2000/svg">
<path d="M7.92188 7.4375C7.92188 8.11458 7.68229 8.6875 7.20312 9.15625C6.51562 9.82292 5.53125 10.1562 4.25 10.1562C3.15625 10.1562 2.20312 9.89062 1.39062 9.35938C1.39062 9.55729 1.38021 9.70312 1.35938 9.79688C1.30729 9.95312 1.15104 10.0312 0.890625 10.0312V6.75H1.45312C1.48438 7.15625 1.55208 7.53125 1.65625 7.875C2.05208 9.09375 2.86979 9.70312 4.10938 9.70312C4.44271 9.70312 4.74479 9.64583 5.01562 9.53125C5.69271 9.26042 6.03125 8.76042 6.03125 8.03125C6.03125 7.79167 5.97396 7.5625 5.85938 7.34375C5.64062 6.90625 5.07292 6.46354 4.15625 6.01562C3.16667 5.52604 2.59375 5.23958 2.4375 5.15625C1.45833 4.5625 0.96875 3.82812 0.96875 2.95312C0.96875 2.36979 1.17708 1.86458 1.59375 1.4375C2.22917 0.791667 3.15104 0.46875 4.35938 0.46875C5.30729 0.46875 6.19271 0.671875 7.01562 1.07812C7.01562 0.984375 7.02083 0.901042 7.03125 0.828125C7.07292 0.630208 7.23958 0.53125 7.53125 0.53125V3.32812H6.96875C6.96875 2.75521 6.82292 2.26042 6.53125 1.84375C6.09375 1.22917 5.44792 0.921875 4.59375 0.921875C4.32292 0.921875 4.06771 0.96875 3.82812 1.0625C3.22396 1.29167 2.92188 1.71875 2.92188 2.34375C2.92188 2.58333 2.97917 2.81771 3.09375 3.04688C3.3125 3.47396 3.86979 3.91146 4.76562 4.35938C5.74479 4.83854 6.30729 5.11979 6.45312 5.20312C7.43229 5.80729 7.92188 6.55208 7.92188 7.4375Z" fill="#061737"/>
</svg>
