<svg width="16" height="16" viewBox="0 0 16 16" fill="none" xmlns="http://www.w3.org/2000/svg">
<path d="M4.50662 14.3333C4.13328 14.334 3.78995 14.1287 3.61395 13.8C3.50928 13.6067 3.47128 13.384 3.50662 13.1667L4.10062 9.84C4.10062 9.83266 4.09862 9.82533 4.09328 9.82L1.62662 7.44666C1.43928 7.264 1.33395 7.01333 1.33328 6.75133C1.33328 6.47533 1.44395 6.21066 1.64062 6.018C1.79595 5.878 1.98795 5.786 2.19395 5.75133L5.56062 5.26466C5.57395 5.26466 5.58795 5.25866 5.58795 5.24466L7.09328 2.22666C7.21195 1.98733 7.42062 1.806 7.67328 1.72C7.77862 1.684 7.88928 1.66666 7.99995 1.66666C8.38195 1.66866 8.72995 1.88466 8.89995 2.22666L10.4073 5.25333C10.4139 5.26 10.4206 5.26666 10.4266 5.26666L13.8013 5.75333C14.0653 5.79066 14.3046 5.92933 14.4679 6.14C14.7686 6.54266 14.7226 7.10466 14.3613 7.45333L11.9146 9.82C11.9146 9.82 11.9099 9.82466 11.9099 9.82666C11.9099 9.82866 11.9099 9.82666 11.9146 9.83333L12.5013 13.1733C12.5813 13.7167 12.2106 14.2247 11.6679 14.3133C11.6159 14.3207 11.5626 14.3253 11.5099 14.3253C11.3446 14.326 11.1813 14.2853 11.0353 14.2067L8.02128 12.6333C8.01195 12.6327 8.00262 12.6353 7.99462 12.64L4.95995 14.2267C4.81995 14.2973 4.66395 14.334 4.50662 14.3333Z" fill="#E8C842"/>
</svg>
