<svg width="16" height="16" viewBox="0 0 16 16" fill="none" xmlns="http://www.w3.org/2000/svg">
<path fill-rule="evenodd" clip-rule="evenodd" d="M7.99986 1.33367C4.31772 1.33367 1.33319 4.3182 1.33319 8.00034C1.33319 11.6825 4.31772 14.667 7.99986 14.667C11.682 14.667 14.6665 11.6825 14.6665 8.00034C14.6665 4.3182 11.682 1.33367 7.99986 1.33367ZM7.99986 2.33367C11.1297 2.33367 13.6665 4.87048 13.6665 8.00034C13.6665 11.1302 11.1297 13.667 7.99986 13.667C4.87 13.667 2.33319 11.1302 2.33319 8.00034C2.33319 4.87048 4.87 2.33367 7.99986 2.33367ZM8.2697 5.16342C8.23659 4.91937 8.02739 4.73127 7.77426 4.73127C7.49812 4.73127 7.27426 4.95513 7.27426 5.23127V8.4626L7.27983 8.5371C7.30192 8.6838 7.38848 8.81468 7.5181 8.892L10.0314 10.3913L10.092 10.4222C10.3186 10.5188 10.5873 10.4355 10.717 10.2181L10.7478 10.1575C10.8444 9.93094 10.7611 9.66222 10.5438 9.53254L8.27399 8.178L8.27426 5.23127L8.2697 5.16342Z" fill="#F9545B"/>
</svg>
